<svg width="18" height="14" viewBox="0 0 18 14" fill="none" xmlns="http://www.w3.org/2000/svg">
<path d="M17.9565 5.21848L16.9065 2.51115C16.8174 2.28209 16.6637 2.08589 16.4653 1.94798C16.2668 1.81006 16.0328 1.73678 15.7935 1.73763H13.2V1.11882C13.2 0.954696 13.1368 0.797298 13.0243 0.681247C12.9117 0.565197 12.7591 0.5 12.6 0.5H1.2C0.88174 0.5 0.576515 0.630393 0.351472 0.862494C0.126428 1.0946 0 1.40939 0 1.73763V10.4011C0 10.7293 0.126428 11.0441 0.351472 11.2762C0.576515 11.5083 0.88174 11.6387 1.2 11.6387H2.475C2.60718 12.1711 2.90742 12.6431 3.32839 12.9801C3.74935 13.3171 4.2671 13.5 4.8 13.5C5.3329 13.5 5.85065 13.3171 6.27161 12.9801C6.69258 12.6431 6.99282 12.1711 7.125 11.6387H10.875C11.0072 12.1711 11.3074 12.6431 11.7284 12.9801C12.1493 13.3171 12.6671 13.5 13.2 13.5C13.7329 13.5 14.2506 13.3171 14.6716 12.9801C15.0926 12.6431 15.3928 12.1711 15.525 11.6387H16.8C17.1183 11.6387 17.4235 11.5083 17.6485 11.2762C17.8736 11.0441 18 10.7293 18 10.4011V5.45053C18.0003 5.371 17.9855 5.29217 17.9565 5.21848ZM13.2 2.97527H15.7935L16.5135 4.83172H13.2V2.97527ZM1.2 1.73763H12V6.68816H1.2V1.73763ZM4.8 12.2575C4.56266 12.2575 4.33065 12.1849 4.13332 12.0489C3.93598 11.9129 3.78217 11.7197 3.69134 11.4935C3.60052 11.2674 3.57675 11.0185 3.62306 10.7784C3.66936 10.5384 3.78365 10.3178 3.95147 10.1447C4.11929 9.97166 4.33311 9.85378 4.56589 9.80603C4.79867 9.75827 5.03995 9.78278 5.25922 9.87646C5.47849 9.97013 5.6659 10.1288 5.79776 10.3323C5.92962 10.5358 6 10.7751 6 11.0199C6 11.3481 5.87357 11.6629 5.64853 11.895C5.42348 12.1271 5.11826 12.2575 4.8 12.2575ZM10.875 10.4011H7.125C6.99282 9.86862 6.69258 9.3967 6.27161 9.05969C5.85065 8.72268 5.3329 8.53976 4.8 8.53976C4.2671 8.53976 3.74935 8.72268 3.32839 9.05969C2.90742 9.3967 2.60718 9.86862 2.475 10.4011H1.2V7.9258H12V8.878C11.7241 9.04244 11.4825 9.26175 11.2894 9.5232C11.0963 9.78465 10.9554 10.083 10.875 10.4011ZM13.2 12.2575C12.9627 12.2575 12.7307 12.1849 12.5333 12.0489C12.336 11.9129 12.1822 11.7197 12.0913 11.4935C12.0005 11.2674 11.9768 11.0185 12.0231 10.7784C12.0694 10.5384 12.1836 10.3178 12.3515 10.1447C12.5193 9.97166 12.7331 9.85378 12.9659 9.80603C13.1987 9.75827 13.4399 9.78278 13.6592 9.87646C13.8785 9.97013 14.0659 10.1288 14.1978 10.3323C14.3296 10.5358 14.4 10.7751 14.4 11.0199C14.4 11.3481 14.2736 11.6629 14.0485 11.895C13.8235 12.1271 13.5183 12.2575 13.2 12.2575ZM16.8 10.4011H15.525C15.3912 9.86992 15.0904 9.39954 14.6697 9.0636C14.249 8.72766 13.7321 8.54513 13.2 8.54461V6.06935H16.8V10.4011Z" fill="black"/>
</svg>
