<svg width="30" height="30" viewBox="0 0 30 30" fill="none" xmlns="http://www.w3.org/2000/svg">
<rect width="30" height="30" rx="14" fill="#FFDDC5"/>
<path d="M25.2512 23.1937C23.9199 21.0487 20.9893 18.75 14.9987 18.75C9.00803 18.75 6.07928 21.0469 4.74615 23.1937C5.97443 24.7336 7.53412 25.9766 9.30918 26.8304C11.0842 27.6841 13.029 28.1267 14.9987 28.125C16.9684 28.1267 18.9131 27.6841 20.6881 26.8304C22.4632 25.9766 24.0229 24.7336 25.2512 23.1937V23.1937Z" fill="#FF8F40"/>
<path fill-rule="evenodd" clip-rule="evenodd" d="M15 16.875C16.4918 16.875 17.9226 16.2824 18.9775 15.2275C20.0324 14.1726 20.625 12.7418 20.625 11.25C20.625 9.75816 20.0324 8.32742 18.9775 7.27252C17.9226 6.21763 16.4918 5.625 15 5.625C13.5082 5.625 12.0774 6.21763 11.0225 7.27252C9.96763 8.32742 9.375 9.75816 9.375 11.25C9.375 12.7418 9.96763 14.1726 11.0225 15.2275C12.0774 16.2824 13.5082 16.875 15 16.875V16.875Z" fill="#FF8F40"/>
</svg>
