<svg width="250" height="251" viewBox="0 0 250 251" fill="none" xmlns="http://www.w3.org/2000/svg">
<path fill-rule="evenodd" clip-rule="evenodd" d="M46.875 39.5625C46.875 29.2025 50.9905 19.2668 58.3161 11.9411C65.6418 4.6155 75.5775 0.5 85.9375 0.5C96.2975 0.5 106.233 4.6155 113.559 11.9411C120.884 19.2668 125 29.2025 125 39.5625C125 29.2025 129.116 19.2668 136.441 11.9411C143.767 4.6155 153.702 0.5 164.062 0.5C174.423 0.5 184.358 4.6155 191.684 11.9411C199.009 19.2668 203.125 29.2025 203.125 39.5625V39.6563C203.125 40.75 203.125 43.875 202.531 47.375H234.375C238.519 47.375 242.493 49.0212 245.424 51.9515C248.354 54.8817 250 58.856 250 63V94.25C250 98.394 248.354 102.368 245.424 105.299C242.493 108.229 238.519 109.875 234.375 109.875V227.062C234.375 233.279 231.906 239.24 227.51 243.635C223.115 248.031 217.154 250.5 210.938 250.5H39.0625C32.8465 250.5 26.8851 248.031 22.4897 243.635C18.0943 239.24 15.625 233.279 15.625 227.062V109.875C11.481 109.875 7.50671 108.229 4.57646 105.299C1.6462 102.368 0 98.394 0 94.25V63C0 58.856 1.6462 54.8817 4.57646 51.9515C7.50671 49.0212 11.481 47.375 15.625 47.375H47.4688C47.0561 44.8231 46.8574 42.2412 46.875 39.6563V39.5625ZM63.5625 47.375H109.375V39.5625C109.375 36.4846 108.769 33.4369 107.591 30.5934C106.413 27.7498 104.687 25.1661 102.51 22.9897C100.334 20.8133 97.7502 19.0869 94.9066 17.9091C92.0631 16.7312 89.0154 16.125 85.9375 16.125C82.8596 16.125 79.8119 16.7312 76.9684 17.9091C74.1248 19.0869 71.5411 20.8133 69.3647 22.9897C67.1883 25.1661 65.4619 27.7498 64.2841 30.5934C63.1062 33.4369 62.5 36.4846 62.5 39.5625C62.5 40.8906 62.5313 43.8438 63.2031 46.2813C63.297 46.6538 63.4171 47.0193 63.5625 47.375V47.375ZM140.625 47.375H186.438C186.581 47.0187 186.701 46.6533 186.797 46.2813C187.469 43.8438 187.5 40.8906 187.5 39.5625C187.5 33.3465 185.031 27.3851 180.635 22.9897C176.24 18.5943 170.279 16.125 164.062 16.125C157.846 16.125 151.885 18.5943 147.49 22.9897C143.094 27.3851 140.625 33.3465 140.625 39.5625V47.375ZM15.625 63V94.25H109.375V63H15.625ZM140.625 63V94.25H234.375V63H140.625ZM218.75 109.875H140.625V234.875H210.938C213.01 234.875 214.997 234.052 216.462 232.587C217.927 231.122 218.75 229.135 218.75 227.062V109.875ZM109.375 234.875V109.875H31.25V227.062C31.25 229.135 32.0731 231.122 33.5382 232.587C35.0034 234.052 36.9905 234.875 39.0625 234.875H109.375Z" fill="#FF8A3D"/>
</svg>
