<svg width="200" height="200" viewBox="0 0 200 200" fill="none" xmlns="http://www.w3.org/2000/svg">
<path d="M195.901 161.686L120.07 14.9896C115.15 5.379 107.79 0 99.8896 0C91.9895 0 84.7394 5.48427 79.7294 15.0949L4.08858 161.696C-0.811474 171.181 -1.35148 180.907 2.70856 188.328C6.75861 195.771 14.8687 200.002 24.8988 200.002H175.1C185.13 200.002 193.241 195.77 197.301 188.339C201.351 180.907 200.811 171.297 195.901 161.696M99.9996 45.8636C103.95 45.8636 107.15 49.2953 107.15 53.5269V122.822C107.15 127.054 103.95 130.486 99.9996 130.486C99.0519 130.477 98.115 130.272 97.2426 129.883C96.3702 129.493 95.5793 128.926 94.9152 128.214C94.2511 127.503 93.7269 126.66 93.3724 125.735C93.018 124.81 92.8403 123.82 92.8495 122.822V53.5164C92.8495 49.4005 96.0495 45.8636 99.9996 45.8636ZM99.9996 168.212C93.8095 168.212 88.8995 162.844 88.8995 156.212C88.8995 149.581 93.9195 144.202 99.9996 144.202C106.19 144.202 111.1 149.57 111.1 156.202C111.1 162.833 106.08 168.212 99.9996 168.212Z" fill="#FF0000"/>
</svg>
